<?xml version="1.0" encoding="UTF-8" standalone="no"?>
<svg
   inkscape:version="1.2.1 (9c6d41e, 2022-07-14)"
   sodipodi:docname="edit_pipeline_icon.svg"
   id="svg6"
   version="1.1"
   width="24"
   viewBox="0 0 24 24"
   height="24"
   xmlns:inkscape="http://www.inkscape.org/namespaces/inkscape"
   xmlns:sodipodi="http://sodipodi.sourceforge.net/DTD/sodipodi-0.dtd"
   xmlns="http://www.w3.org/2000/svg"
   xmlns:svg="http://www.w3.org/2000/svg"
   xmlns:rdf="http://www.w3.org/1999/02/22-rdf-syntax-ns#"
   xmlns:cc="http://creativecommons.org/ns#"
   xmlns:dc="http://purl.org/dc/elements/1.1/">
  <metadata
     id="metadata12">
    <rdf:RDF>
      <cc:Work
         rdf:about="">
        <dc:format>image/svg+xml</dc:format>
        <dc:type
           rdf:resource="http://purl.org/dc/dcmitype/StillImage" />
      </cc:Work>
    </rdf:RDF>
  </metadata>
  <defs
     id="defs10" />
  <sodipodi:namedview
     inkscape:current-layer="svg6"
     inkscape:window-maximized="1"
     inkscape:window-y="38"
     inkscape:window-x="0"
     inkscape:cy="12.081633"
     inkscape:cx="6.0571429"
     inkscape:zoom="30.625"
     inkscape:snap-bbox="true"
     showgrid="false"
     id="namedview8"
     inkscape:window-height="978"
     inkscape:window-width="1728"
     inkscape:pageshadow="2"
     inkscape:pageopacity="0"
     guidetolerance="10"
     gridtolerance="10"
     objecttolerance="10"
     borderopacity="1"
     bordercolor="#666666"
     pagecolor="#ffffff"
     inkscape:showpageshadow="2"
     inkscape:pagecheckerboard="0"
     inkscape:deskcolor="#d1d1d1" />
  <path
     id="path2"
     fill="none"
     d="M0 0h24v24H0z" />
  <path
     id="path642"
     style="fill:#d9d9d9;fill-opacity:1;stroke-width:0.691654"
     d="M 12,3.3789058 A 2.4408162,2.4163265 0 0 0 9.558594,5.7949215 2.4408162,2.4163265 0 0 0 11.265625,8.0957027 V 9.6992183 A 2.4408162,2.4163265 0 0 0 9.558594,12 a 2.4408162,2.4163265 0 0 0 1.707031,2.300781 v 1.601563 A 2.4408162,2.4163265 0 0 0 9.558594,18.203125 2.4408162,2.4163265 0 0 0 12,20.621094 2.4408162,2.4163265 0 0 0 14.441406,18.203125 2.4408162,2.4163265 0 0 0 12.734375,15.90039 V 14.300781 A 2.4408162,2.4163265 0 0 0 14.441406,12 2.4408162,2.4163265 0 0 0 12.734375,9.6953121 V 8.0957027 A 2.4408162,2.4163265 0 0 0 14.441406,5.7949215 2.4408162,2.4163265 0 0 0 12,3.3789058 Z" />
</svg>
