<?xml version="1.0" encoding="UTF-8" standalone="no"?>
<svg
   fill="#000000"
   height="24"
   viewBox="0 0 24 24"
   width="24"
   version="1.1"
   id="svg1966"
   xmlns="http://www.w3.org/2000/svg"
   xmlns:svg="http://www.w3.org/2000/svg">
  <defs
     id="defs1970" />
  <path
     d="M0 0h24v24H0z"
     fill="none"
     id="path1962" />
  <path
     d="m 19.1375,21.0125 -5.475,-5.475 2.1,-2.1 5.475,5.475 z m -13.7999999,0 -2.1,-2.1 6.8999999,-6.9 -1.6999999,-1.7 -0.7,0.7 -1.275,-1.2750002 V 11.7875 l -0.7,0.7 -3.025,-3.0250002 0.7,-0.7 h 2.05 l -1.25,-1.25 3.55,-3.55 q 0.5,-0.5 1.075,-0.725 0.575,-0.225 1.1749999,-0.225 0.6,0 1.175,0.225 0.575,0.225 1.075,0.725 l -2.3000001,2.3 1.2500001,1.25 -0.7,0.7 1.7,1.7 2.25,-2.25 q -0.1,-0.275 -0.1625,-0.575 -0.0625,-0.3 -0.0625,-0.6 0,-1.475 1.0125,-2.4875 1.0125,-1.0125 2.4875,-1.0125 0.375,0 0.7125,0.075 0.3375,0.075 0.6875,0.225 l -2.475,2.475 1.8,1.8 2.475,-2.475 q 0.175,0.35 0.2375,0.6875 0.0625,0.3375 0.0625,0.7125 0,1.475 -1.0125,2.4875 -1.0125,1.0125 -2.4875,1.0125 -0.3,0 -0.6,-0.05 -0.3,-0.05 -0.575,-0.175 z"
     id="path254"
     style="fill:#505050;fill-opacity:1;stroke-width:0.025" />
</svg>
