<?xml version="1.0" encoding="UTF-8" standalone="no"?>
<svg
   fill="#000000"
   height="24"
   viewBox="0 0 24 24"
   width="24"
   version="1.1"
   id="svg18330"
   sodipodi:docname="export_as_text_snippet.svg"
   inkscape:version="1.2.1 (9c6d41e, 2022-07-14)"
   xmlns:inkscape="http://www.inkscape.org/namespaces/inkscape"
   xmlns:sodipodi="http://sodipodi.sourceforge.net/DTD/sodipodi-0.dtd"
   xmlns="http://www.w3.org/2000/svg"
   xmlns:svg="http://www.w3.org/2000/svg"
   xmlns:rdf="http://www.w3.org/1999/02/22-rdf-syntax-ns#"
   xmlns:cc="http://creativecommons.org/ns#"
   xmlns:dc="http://purl.org/dc/elements/1.1/">
  <metadata
     id="metadata18336">
    <rdf:RDF>
      <cc:Work
         rdf:about="">
        <dc:format>image/svg+xml</dc:format>
        <dc:type
           rdf:resource="http://purl.org/dc/dcmitype/StillImage" />
      </cc:Work>
    </rdf:RDF>
  </metadata>
  <defs
     id="defs18334" />
  <sodipodi:namedview
     pagecolor="#ffffff"
     bordercolor="#666666"
     borderopacity="1"
     objecttolerance="10"
     gridtolerance="10"
     guidetolerance="10"
     inkscape:pageopacity="0"
     inkscape:pageshadow="2"
     inkscape:window-width="1581"
     inkscape:window-height="936"
     id="namedview18332"
     showgrid="false"
     inkscape:zoom="9.8333333"
     inkscape:cx="3.8135593"
     inkscape:cy="12.40678"
     inkscape:window-x="-53"
     inkscape:window-y="410"
     inkscape:window-maximized="0"
     inkscape:current-layer="svg18330"
     inkscape:showpageshadow="2"
     inkscape:pagecheckerboard="0"
     inkscape:deskcolor="#d1d1d1" />
  <path
     d="M0 0h24v24H0z"
     fill="none"
     id="path18326" />
  <path
     d="m 16.115254,20.415254 2.8,-2.8 v 2.3 h 1 v -4 h -4 v 1 h 2.3 l -2.8,2.8 z m -11.1999998,0.5 q -0.825,0 -1.4125,-0.5875 -0.5875,-0.5875 -0.5875,-1.4125 V 4.9152542 q 0,-0.825 0.5875,-1.4125 0.5875,-0.5875 1.4125,-0.5875 H 18.915254 q 0.825,0 1.4125,0.5875 0.5875,0.5875 0.5875,1.4125 v 6.6999998 q -0.475,-0.225 -0.975,-0.3875 -0.5,-0.1625 -1.025,-0.2375 V 4.9152542 H 4.9152542 V 18.915254 h 6.0499998 q 0.075,0.55 0.2375,1.05 0.1625,0.5 0.3875,0.95 z m 0,-3 v 1 -13.9999998 6.0749998 -0.075 z m 2,-1 h 4.0749998 q 0.075,-0.525 0.2375,-1.025 0.1625,-0.5 0.3625,-0.975 H 6.9152542 Z m 0,-4 h 6.0999998 q 0.8,-0.75 1.7875,-1.25 0.9875,-0.5 2.1125,-0.675 v -0.075 H 6.9152542 Z m 0,-3.9999998 h 9.9999998 v -2 H 6.9152542 Z M 17.915254,22.915254 q -2.075,0 -3.5375,-1.4625 -1.4625,-1.4625 -1.4625,-3.5375 0,-2.075 1.4625,-3.5375 1.4625,-1.4625 3.5375,-1.4625 2.075,0 3.5375,1.4625 1.4625,1.4625 1.4625,3.5375 0,2.075 -1.4625,3.5375 -1.4625,1.4625 -3.5375,1.4625 z"
     id="path132"
     style="fill:#505050;fill-opacity:1;stroke-width:0.025" />
</svg>
