<?xml version="1.0" encoding="UTF-8" standalone="no"?>
<svg
   fill="#000000"
   height="24"
   viewBox="0 0 24 24"
   width="24"
   version="1.1"
   id="svg6"
   sodipodi:docname="restore_object.svg"
   inkscape:version="1.2.1 (9c6d41e, 2022-07-14)"
   xmlns:inkscape="http://www.inkscape.org/namespaces/inkscape"
   xmlns:sodipodi="http://sodipodi.sourceforge.net/DTD/sodipodi-0.dtd"
   xmlns="http://www.w3.org/2000/svg"
   xmlns:svg="http://www.w3.org/2000/svg"
   xmlns:rdf="http://www.w3.org/1999/02/22-rdf-syntax-ns#"
   xmlns:cc="http://creativecommons.org/ns#"
   xmlns:dc="http://purl.org/dc/elements/1.1/">
  <metadata
     id="metadata12">
    <rdf:RDF>
      <cc:Work
         rdf:about="">
        <dc:format>image/svg+xml</dc:format>
        <dc:type
           rdf:resource="http://purl.org/dc/dcmitype/StillImage" />
      </cc:Work>
    </rdf:RDF>
  </metadata>
  <defs
     id="defs10" />
  <sodipodi:namedview
     pagecolor="#ffffff"
     bordercolor="#666666"
     borderopacity="1"
     objecttolerance="10"
     gridtolerance="10"
     guidetolerance="10"
     inkscape:pageopacity="0"
     inkscape:pageshadow="2"
     inkscape:window-width="1728"
     inkscape:window-height="1051"
     id="namedview8"
     showgrid="false"
     inkscape:zoom="9.8333333"
     inkscape:cx="-25.016949"
     inkscape:cy="12.050847"
     inkscape:window-x="0"
     inkscape:window-y="199"
     inkscape:window-maximized="1"
     inkscape:current-layer="svg6"
     inkscape:showpageshadow="2"
     inkscape:pagecheckerboard="0"
     inkscape:deskcolor="#d1d1d1" />
  <path
     d="M0 0h24v24H0z"
     fill="none"
     id="path2" />
  <path
     d="m 12,17.75 q 1.95,0 3.35,-1.4 1.4,-1.4 1.4,-3.35 0,-1.95 -1.4,-3.3499999 -1.4,-1.4 -3.35,-1.4 -0.95,0 -1.775,0.35 -0.8250001,0.35 -1.4750001,0.95 v -1.55 h -1.5 V 12.25 H 11.5 v -1.5 H 9.6999999 Q 10.125,10.3 10.725,10.025 11.325,9.7500001 12,9.7500001 q 1.35,0 2.3,0.9499999 0.95,0.95 0.95,2.3 0,1.35 -0.95,2.3 -0.95,0.95 -2.3,0.95 -1.1,0 -1.925,-0.6375 Q 9.2499999,14.975 8.8999999,14 h -1.55 q 0.35,1.625 1.6375,2.6875 Q 10.275,17.75 12,17.75 Z M 5.9999999,22 q -0.825,0 -1.4125,-0.5875 Q 3.9999999,20.825 3.9999999,20 V 4.0000001 q 0,-0.825 0.5875,-1.4125 0.5875,-0.5875 1.4125,-0.5875 H 14 l 6,6 V 20 q 0,0.825 -0.5875,1.4125 Q 18.825,22 18,22 Z m 0,-2 H 18 V 8.8500001 l -4.85,-4.85 H 5.9999999 Z m 0,0 V 4.0000001 Z"
     id="path270"
     style="fill:#505050;fill-opacity:1;stroke-width:0.025" />
</svg>
